<svg width="32" height="32" viewBox="0 0 32 32" fill="none" xmlns="http://www.w3.org/2000/svg">
<g clip-path="url(#clip0_1_307)">
<path d="M25.3333 4H9.33333C8.27247 4 7.25505 4.42143 6.5049 5.17157C5.75476 5.92172 5.33333 6.93913 5.33333 8V24C5.33333 25.0609 5.75476 26.0783 6.5049 26.8284C7.25505 27.5786 8.27247 28 9.33333 28H25.3333C25.687 28 26.0261 27.8595 26.2761 27.6095C26.5262 27.3594 26.6667 27.0203 26.6667 26.6667V5.33333C26.6667 4.97971 26.5262 4.64057 26.2761 4.39052C26.0261 4.14048 25.687 4 25.3333 4ZM9.33333 6.66667H24V20H9.33333C8.87847 20.0036 8.42756 20.0848 8 20.24V8C8 7.64638 8.14047 7.30724 8.39052 7.05719C8.64057 6.80714 8.97971 6.66667 9.33333 6.66667ZM9.33333 25.3333C8.97971 25.3333 8.64057 25.1929 8.39052 24.9428C8.14047 24.6928 8 24.3536 8 24C8 23.6464 8.14047 23.3072 8.39052 23.0572C8.64057 22.8071 8.97971 22.6667 9.33333 22.6667H24V25.3333H9.33333Z" fill="#D8D7CE"/>
</g>
<defs>
<clipPath id="clip0_1_307">
<rect width="32" height="32" fill="white"/>
</clipPath>
</defs>
</svg>
