<svg width="22" height="27" viewBox="0 0 22 27" fill="none" xmlns="http://www.w3.org/2000/svg">
<path d="M20.3933 6.86796C20.8973 6.36396 21.1747 5.69463 21.1747 4.98263C21.1747 4.27063 20.8973 3.60129 20.3933 3.09729L18.2787 0.982627C17.7747 0.478627 17.1053 0.201294 16.3933 0.201294C15.6813 0.201294 15.012 0.478627 14.5093 0.981294L0.921329 14.5271C0.544911 14.9024 0.333344 15.412 0.333344 15.9435V20C0.333344 20.5522 0.781059 21 1.33334 21H5.39074C5.92009 21 6.42786 20.7901 6.80275 20.4164L20.3933 6.86796ZM16.3933 2.86796L18.5093 4.98129L16.3893 7.09329L14.2747 4.97996L16.3933 2.86796ZM4.00001 18.3333C3.44772 18.3333 3.00001 17.8856 3.00001 17.3333V16.22L12.3867 6.86263L14.5013 8.97729L5.11601 18.3333H4.00001ZM0.333344 25C0.333344 24.2636 0.930297 23.6666 1.66668 23.6666H20.3333C21.0697 23.6666 21.6667 24.2636 21.6667 25C21.6667 25.7363 21.0697 26.3333 20.3333 26.3333H1.66668C0.9303 26.3333 0.333344 25.7363 0.333344 25Z" fill="#D8D7CE"/>
</svg>
